<?xml version="1.0" encoding="UTF-8"?>
<svg version="1.1" xmlns="http://www.w3.org/2000/svg" width="736" height="414">
<path d="M0 0 C242.88 0 485.76 0 736 0 C736 136.62 736 273.24 736 414 C493.12 414 250.24 414 0 414 C0 277.38 0 140.76 0 0 Z " fill="#FEFEFE" transform="translate(0,0)"/>
<path d="M0 0 C242.88 0 485.76 0 736 0 C736 5.28 736 10.56 736 16 C734.68 16 733.36 16 732 16 C731.67 16.99 731.34 17.98 731 19 C730.34 19.33 729.68 19.66 729 20 C728.27306096 21.97888961 727.60183749 23.97954558 727 26 C726.34 26 725.68 26 725 26 C724.7525 26.639375 724.505 27.27875 724.25 27.9375 C723.63125 29.4534375 723.63125 29.4534375 723 31 C722.69707031 31.74765625 722.39414062 32.4953125 722.08203125 33.265625 C721.57736328 34.46445313 721.57736328 34.46445313 721.0625 35.6875 C720.74410156 36.45449219 720.42570313 37.22148438 720.09765625 38.01171875 C719 40 719 40 716 42 C714.55577774 44.40485798 714.55577774 44.40485798 713.3125 47.125 C712.87550781 48.03507812 712.43851563 48.94515625 711.98828125 49.8828125 C711.66214844 50.58148438 711.33601562 51.28015625 711 52 C710.34 52 709.68 52 709 52 C708.690625 52.61875 708.38125 53.2375 708.0625 53.875 C707.375 55.25 706.6875 56.625 706 58 C705.34 58 704.68 58 704 58 C703.95875 58.5775 703.9175 59.155 703.875 59.75 C702.57509891 63.09260279 699.94484525 64.05640213 697 66 C695.95650161 67.63978318 694.94392019 69.30094366 694 71 C693.34 71 692.68 71 692 71 C691.75636719 71.5878125 691.51273438 72.175625 691.26171875 72.78125 C687.81523521 78.84193932 680.07866324 82.8986412 674 86 C673.34 86 672.68 86 672 86 C671.79375 86.639375 671.5875 87.27875 671.375 87.9375 C670 90 670 90 666.875 90.75 C665.92625 90.8325 664.9775 90.915 664 91 C664 91.66 664 92.32 664 93 C663.34 93 662.68 93 662 93 C662 93.66 662 94.32 662 95 C654.66969822 98.74700289 654.66969822 98.74700289 651.1875 100.0625 C648.99454155 100.81903067 648.99454155 100.81903067 647.83203125 102.3125 C645.08781998 104.84021699 641.82208077 106.30941447 638.5 107.9375 C637.7881958 108.28941406 637.0763916 108.64132813 636.34301758 109.00390625 C621.9670166 116 621.9670166 116 616 116 C616 116.66 616 117.32 616 118 C614.08594633 118.67413211 612.16863974 119.3390332 610.25 120 C609.18265625 120.37125 608.1153125 120.7425 607.015625 121.125 C604 122 604 122 600 122 C600 122.66 600 123.32 600 124 C599.11957031 124.12117188 598.23914063 124.24234375 597.33203125 124.3671875 C596.17058594 124.53476563 595.00914062 124.70234375 593.8125 124.875 C592.66394531 125.03742188 591.51539063 125.19984375 590.33203125 125.3671875 C587.29445119 125.94407844 584.82095707 126.77245042 582 128 C574.76166872 130.2373024 567.54061958 130.5975512 560 131 C560 131.66 560 132.32 560 133 C546.83346638 134.76047703 533.68884127 136.27717797 520.44335938 137.2980957 C514.92777184 137.73041564 509.4783946 138.2928082 504 139.0625 C497.49366653 139.93628445 491.05913849 140.23084293 484.5 140.4375 C476.12741262 140.71572302 467.87488907 141.32590901 459.5625 142.375 C458.65371094 142.48900146 457.74492187 142.60300293 456.80859375 142.72045898 C451.1818387 143.47039242 445.60349569 144.42175971 440.01953125 145.4375 C431.26810798 147.01963788 422.48218511 148.20345959 413.65917969 149.30761719 C411.10549813 149.62744243 408.552724 149.95387776 406 150.28125 C397.67846174 151.34055263 389.3654855 152.3474403 381 153 C381 153.66 381 154.32 381 155 C373.94546999 156.20443195 367.16562789 157.28100502 360 157 C360 157.66 360 158.32 360 159 C353.74731746 161.30361988 347.51039618 162.79916807 340.96655273 163.99731445 C337.70262867 164.38350681 337.70262867 164.38350681 335 166 C333.54621198 166.27520267 332.08653811 166.51947348 330.625 166.75 C325.56332021 167.70897922 321.36126648 169.53850302 316.7421875 171.76953125 C314.06080809 172.97271432 311.45176349 173.8323319 308.625 174.625 C304.98851295 175.65008848 302.15386057 176.86901313 299 179 C294.40025756 181.83061073 290.21876075 183.72688727 285.015625 185.19140625 C282.75698408 186.09748895 281.66914963 187.26849708 280 189 C279.34 189 278.68 189 278 189 C278 189.66 278 190.32 278 191 C275.36 191.66 272.72 192.32 270 193 C270 193.99 270 194.98 270 196 C268.02 196.66 266.04 197.32 264 198 C264 198.66 264 199.32 264 200 C262.20963542 200.9765625 260.41927083 201.953125 258.62890625 202.9296875 C256.83381685 203.91410024 256.83381685 203.91410024 256 206 C255.34 206 254.68 206 254 206 C254 206.66 254 207.32 254 208 C253.236875 208.598125 252.47375 209.19625 251.6875 209.8125 C248.94137204 211.77748225 248.94137204 211.77748225 247.6875 214.3125 C245.19775544 218.27764874 241.75990038 221.22996724 238 224 C237.34 224 236.68 224 236 224 C235.814375 225.2065625 235.814375 225.2065625 235.625 226.4375 C235.41875 227.283125 235.2125 228.12875 235 229 C234.34 229.33 233.68 229.66 233 230 C232.27306096 231.97888961 231.60183749 233.97954558 231 236 C230.34 236 229.68 236 229 236 C228.59587891 237.08667969 228.59587891 237.08667969 228.18359375 238.1953125 C227.0180171 240.95730602 225.65452168 243.33910796 224.0625 245.875 C222.25082197 248.82281511 220.6324302 251.65153252 219.375 254.875 C217.97423363 258.05855993 216.55487092 259.70061617 214 262 C213.67 262.66 213.34 263.32 213 264 C212.34 264 211.68 264 211 264 C210.814375 264.86625 210.814375 264.86625 210.625 265.75 C209.70790054 269.05155805 208.683216 271.33170138 206.2109375 273.75 C203.67308078 276.33269517 201.58860478 279.08818304 199.4375 282 C198.67308594 283.03125 197.90867188 284.0625 197.12109375 285.125 C195.84162709 286.85923105 194.57846063 288.60590055 193.34765625 290.375 C192.90292969 290.91125 192.45820313 291.4475 192 292 C191.34 292 190.68 292 190 292 C189.6596875 292.8353125 189.6596875 292.8353125 189.3125 293.6875 C187.61856764 296.67204749 185.48385302 298.62654045 183 301 C182.401875 301.61875 181.80375 302.2375 181.1875 302.875 C180.56875 303.514375 179.95 304.15375 179.3125 304.8125 C178.73113281 305.41707031 178.14976562 306.02164062 177.55078125 306.64453125 C176 308 176 308 174 308 C173.7525 308.639375 173.505 309.27875 173.25 309.9375 C172 312 172 312 169.875 312.75 C169.25625 312.8325 168.6375 312.915 168 313 C168 313.99 168 314.98 168 316 C162.74285714 320 162.74285714 320 160 320 C159.67 320.99 159.34 321.98 159 323 C157.04290043 324.08155503 155.02717912 325.05631317 153 326 C146.72082317 329.26090172 140.75920287 332.68043894 135.0703125 336.8984375 C132.56078139 338.23369745 130.80243399 338.20505615 128 338 C128 338.66 128 339.32 128 340 C120.079304 342.79400375 112.00951436 344.87739698 103.875 346.9375 C102.54939766 347.27507071 101.22387636 347.61295982 99.8984375 347.95117188 C99.24296936 348.11839752 98.58750122 348.28562317 97.91217041 348.45791626 C95.93542206 348.9633774 93.95937757 349.47152157 91.98339844 349.97998047 C89.2608121 350.68051376 86.53453637 351.36395156 83.80566406 352.03955078 C82.4562973 352.38150893 81.1070105 352.72378285 79.7578125 353.06640625 C78.55527832 353.36619385 77.35274414 353.66598145 76.11376953 353.97485352 C73.12712616 354.95814625 71.39898772 356.03419091 69 358 C66.421875 358.73046875 66.421875 358.73046875 63.75 359.1875 C62.85796875 359.34605469 61.9659375 359.50460937 61.046875 359.66796875 C60.37140625 359.77753906 59.6959375 359.88710938 59 360 C59 360.66 59 361.32 59 362 C58.09507813 362.14695312 58.09507813 362.14695312 57.171875 362.296875 C52.04955036 363.25524542 49.61500581 364.13568345 46 368 C42.75 368.75 42.75 368.75 40 369 C40 369.66 40 370.32 40 371 C34.58823529 375 34.58823529 375 32 375 C32 375.66 32 376.32 32 377 C30.29994812 378.23337097 28.59646647 379.46246291 26.87109375 380.66015625 C21.78778656 384.30018624 18.99639915 388.43661106 16.2109375 393.9140625 C15 396 15 396 13.4765625 397.4609375 C11.56102751 399.45755334 10.9281755 401.40340987 10 404 C8 409 8 409 6 414 C4.02 414 2.04 414 0 414 C0 277.38 0 140.76 0 0 Z " fill="#E1EBCE" transform="translate(0,0)"/>
<path d="M0 0 C179.19 0 358.38 0 543 0 C543 0.66 543 1.32 543 2 C540.69 2.33 538.38 2.66 536 3 C536 3.66 536 4.32 536 5 C532.4205283 6.34386556 528.83584287 7.67323814 525.25 9 C524.23421875 9.3815625 523.2184375 9.763125 522.171875 10.15625 C521.1921875 10.5171875 520.2125 10.878125 519.203125 11.25 C518.30239258 11.58515625 517.40166016 11.9203125 516.47363281 12.265625 C514 13 514 13 510 13 C510 13.66 510 14.32 510 15 C508.87722656 15.32613281 507.75445312 15.65226563 506.59765625 15.98828125 C497.46471522 18.60778242 497.46471522 18.60778242 488.4375 21.5625 C483.20572401 23.34969065 477.83316831 24.59896938 472.46484375 25.8984375 C469.46340211 26.627463 466.48173224 27.40655353 463.50390625 28.2265625 C452.48216058 31.20920107 441.49763672 33.11448909 430.17089844 34.56835938 C424.49000539 35.30656378 418.94678501 36.19446737 413.36328125 37.484375 C404.51095107 39.45279206 395.57443833 40.25380249 386.5625 41.125 C384.01787324 41.37803542 381.4734811 41.63329057 378.92918396 41.88961792 C377.36225355 42.04674178 375.79509603 42.20162423 374.22767639 42.35379028 C370.90876229 42.68019181 367.62191408 43.05462857 364.31982422 43.53173828 C361.32342451 43.95438092 358.3990851 44.20658793 355.37890625 44.359375 C340.24938795 45.21680451 325.28315891 46.67542927 310.25 48.5625 C309.34831085 48.67436646 308.4466217 48.78623291 307.51760864 48.90148926 C304.95365713 49.2214239 302.39073838 49.54844052 299.828125 49.87890625 C299.05031174 49.97677933 298.27249847 50.0746524 297.47111511 50.17549133 C293.93521451 50.37051901 293.93521451 50.37051901 291 52 C288.79501507 52.46571129 286.5788285 52.87854314 284.359375 53.26953125 C282.96350148 53.52126161 281.56766959 53.77322293 280.171875 54.02539062 C277.98100623 54.41665184 275.78978019 54.80552854 273.59765625 55.18969727 C261.12618688 57.38507634 249.28276821 60.5885143 237.4375 65.125 C236.76654297 65.37636719 236.09558594 65.62773438 235.40429688 65.88671875 C232.79288674 66.87537948 230.25198278 67.86578695 227.78515625 69.1796875 C226 70 226 70 222 70 C222 70.66 222 71.32 222 72 C220.9275 72.433125 219.855 72.86625 218.75 73.3125 C216.44860188 74.28688227 214.77005686 75.17245735 212.75 76.6875 C211 78 211 78 208 78 C208 78.66 208 79.32 208 80 C206.8553125 80.4021875 206.8553125 80.4021875 205.6875 80.8125 C203.03760853 81.78530623 203.03760853 81.78530623 201.59765625 83.4296875 C199.78179547 85.21446998 198.01541358 86.15999065 195.75 87.3125 C192.64105595 88.97997888 190.04525917 90.68853993 187.4375 93.0625 C183.96074447 96.20775094 180.24159459 98.07597771 176 100 C174.66434383 100.66200062 173.33037046 101.32744021 172 102 C172 102.66 172 103.32 172 104 C170.13671875 105.47265625 170.13671875 105.47265625 167.6875 107.0625 C166.88699219 107.58972656 166.08648437 108.11695312 165.26171875 108.66015625 C163 110 163 110 160 111 C160 111.66 160 112.32 160 113 C158.3203125 114.2890625 158.3203125 114.2890625 156.125 115.625 C155.40570313 116.07101563 154.68640625 116.51703125 153.9453125 116.9765625 C152 118 152 118 150 118 C150 118.66 150 119.32 150 120 C148.07412421 121.63139937 146.15673283 123.13723225 144.125 124.625 C143.56941406 125.04523438 143.01382813 125.46546875 142.44140625 125.8984375 C138.26235288 129 138.26235288 129 136 129 C136 129.66 136 130.32 136 131 C134.390625 132.4375 134.390625 132.4375 132.25 134 C131.55390625 134.515625 130.8578125 135.03125 130.140625 135.5625 C128.14898379 136.89995249 126.16972077 137.98355423 124 139 C124 139.66 124 140.32 124 141 C122.07412421 142.63139937 120.15673283 144.13723225 118.125 145.625 C117.56941406 146.04523438 117.01382813 146.46546875 116.44140625 146.8984375 C112.26235288 150 112.26235288 150 110 150 C110 150.66 110 151.32 110 152 C104.58823529 156 104.58823529 156 102 156 C102 156.66 102 157.32 102 158 C101.34 158 100.68 158 100 158 C100 158.66 100 159.32 100 160 C98.68 160.33 97.36 160.66 96 161 C96 161.66 96 162.32 96 163 C94.3203125 164.5078125 94.3203125 164.5078125 92.125 166.125 C91.40570313 166.66382813 90.68640625 167.20265625 89.9453125 167.7578125 C88 169 88 169 86 169 C86 169.66 86 170.32 86 171 C85.34 171 84.68 171 84 171 C84 171.66 84 172.32 84 173 C82.68 173.33 81.36 173.66 80 174 C80 174.66 80 175.32 80 176 C78.68 176.33 77.36 176.66 76 177 C76 177.66 76 178.32 76 179 C74.68 179.33 73.36 179.66 72 180 C72 180.66 72 181.32 72 182 C70.3203125 183.5078125 70.3203125 183.5078125 68.125 185.125 C67.40570313 185.66382813 66.68640625 186.20265625 65.9453125 186.7578125 C64 188 64 188 62 188 C62 188.66 62 189.32 62 190 C60.3203125 191.2890625 60.3203125 191.2890625 58.125 192.625 C57.40570313 193.07101563 56.68640625 193.51703125 55.9453125 193.9765625 C54 195 54 195 52 195 C52 195.66 52 196.32 52 197 C51.34 197 50.68 197 50 197 C50 197.66 50 198.32 50 199 C47.03 199.99 47.03 199.99 44 201 C44 201.66 44 202.32 44 203 C41.8828125 204.5078125 41.8828125 204.5078125 39.125 206.125 C38.22007813 206.66382813 37.31515625 207.20265625 36.3828125 207.7578125 C34 209 34 209 32 209 C32 209.66 32 210.32 32 211 C29.71125827 212.33858524 27.41930344 213.67101014 25.125 215 C24.47402344 215.3815625 23.82304687 215.763125 23.15234375 216.15625 C18.2265625 219 18.2265625 219 16 219 C16 219.66 16 220.32 16 221 C14.73308493 221.67408308 13.46129251 222.33900497 12.1875 223 C11.47980469 223.37125 10.77210937 223.7425 10.04296875 224.125 C8 225 8 225 5 225 C5 225.66 5 226.32 5 227 C3.35 227 1.7 227 0 227 C0 152.09 0 77.18 0 0 Z " fill="#A7C3A9" transform="translate(0,0)"/>
<path d="M0 0 C39.6 0 79.2 0 120 0 C117.03 3.96 117.03 3.96 114 8 C113.67 8.66 113.34 9.32 113 10 C112.34 10 111.68 10 111 10 C110.34 11.98 109.68 13.96 109 16 C108.34 16 107.68 16 107 16 C107 16.66 107 17.32 107 18 C105.34928604 19.02611949 103.68029994 20.02308143 102 21 C101.443125 21.556875 100.88625 22.11375 100.3125 22.6875 C99.6628125 23.3371875 99.6628125 23.3371875 99 24 C98.34 24 97.68 24 97 24 C96.67 24.99 96.34 25.98 96 27 C94.67592331 27.68486725 93.34090759 28.34870203 92 29 C91.34 29.66 90.68 30.32 90 31 C88.03848345 32.96151655 86.56854628 34.00572402 84 35 C83.01 35 82.02 35 81 35 C80.67 35.99 80.34 36.98 80 38 C78.68 38 77.36 38 76 38 C75.64808594 38.93585937 75.64808594 38.93585937 75.2890625 39.890625 C73.63176925 42.60255941 72.3858401 42.88975997 69.375 43.75 C68.55773437 43.99234375 67.74046875 44.2346875 66.8984375 44.484375 C66.27195312 44.65453125 65.64546875 44.8246875 65 45 C65 45.66 65 46.32 65 47 C64.16597656 47.31453125 63.33195313 47.6290625 62.47265625 47.953125 C57.30423111 49.91866583 52.17986916 51.86767647 47.1875 54.25 C43.10857109 56.12328587 39.46480975 56.67528656 35 57 C35 57.66 35 58.32 35 59 C31.7 59.33 28.4 59.66 25 60 C25 60.66 25 61.32 25 62 C23.82630859 62.30744141 23.82630859 62.30744141 22.62890625 62.62109375 C21.61699219 62.89050781 20.60507812 63.15992188 19.5625 63.4375 C18.55316406 63.70433594 17.54382813 63.97117188 16.50390625 64.24609375 C14.08247999 64.75978077 14.08247999 64.75978077 13 66 C10.66666667 66.33333333 8.33333333 66.66666667 6 67 C5.67 67.33 5.34 67.66 5 68 C2.32941149 68.14115161 -0.32432238 68.04247107 -3 68 C-3 68.66 -3 69.32 -3 70 C-6.9813783 71.3271261 -10.85045227 71.06915913 -15 71 C-15 71.66 -15 72.32 -15 73 C-16.62564367 73.30480819 -18.25129092 73.6095973 -19.87695312 73.91430664 C-21.30800156 74.1827105 -22.73898993 74.45143476 -24.16992188 74.72045898 C-27.89320899 75.41999797 -31.6172395 76.11469958 -35.34375 76.796875 C-36.72921424 77.05182492 -38.11463192 77.30702806 -39.5 77.5625 C-40.17571045 77.68641113 -40.8514209 77.81032227 -41.54760742 77.93798828 C-44.85150209 78.5548248 -48.08434744 79.25389987 -51.3125 80.1875 C-56.24069213 81.27337284 -60.97577802 81.16624264 -66 81 C-66 81.66 -66 82.32 -66 83 C-66.76328613 83.07516846 -67.52657227 83.15033691 -68.31298828 83.2277832 C-83.7972902 84.76321503 -99.22173919 86.47623475 -114.62939453 88.66357422 C-124.76243633 90.10161043 -134.83174606 91.2332691 -145.06347656 91.65869141 C-148.52339074 91.81044203 -151.65476815 92.1595105 -155 93 C-157.08234592 93.06743348 -159.16668557 93.08514472 -161.25 93.0625 C-162.32765625 93.05347656 -163.4053125 93.04445313 -164.515625 93.03515625 C-165.74539063 93.01775391 -165.74539063 93.01775391 -167 93 C-167 93.66 -167 94.32 -167 95 C-167.81041748 95.10546143 -168.62083496 95.21092285 -169.45581055 95.31958008 C-172.52990756 95.72273676 -175.60317411 96.13165327 -178.67602539 96.54418945 C-180.63305832 96.80523803 -182.59093494 97.05993691 -184.54882812 97.31445312 C-192.8371667 98.43221889 -200.88164426 100.00347432 -209 102 C-216.47634806 103.69851344 -223.97961362 105.20580738 -231.53125 106.52734375 C-233.84618436 106.97055112 -236.09845569 107.51763836 -238.375 108.125 C-241.44794745 108.86674594 -243.87050235 109.1955936 -247 109 C-247 109.66 -247 110.32 -247 111 C-252.28 111.66 -257.56 112.32 -263 113 C-263 113.66 -263 114.32 -263 115 C-268.43270961 116.9062139 -273.85933328 118.50618542 -279.4375 119.9375 C-284.70229813 121.29828602 -289.71515474 122.92763269 -294.71875 125.0625 C-297.07467763 126.03068944 -299.44399862 126.80478528 -301.875 127.5625 C-305.13896559 128.61631088 -307.28203697 129.89577056 -310 132 C-312.01104306 132.82831897 -314.03850684 133.55434877 -316.09765625 134.25390625 C-318.27606616 135.03049552 -318.27606616 135.03049552 -321 137 C-322.32 137 -323.64 137 -325 137 C-325 137.66 -325 138.32 -325 139 C-326.35546875 140.18359375 -326.35546875 140.18359375 -328.1875 141.4375 C-329.14462891 142.09685547 -329.14462891 142.09685547 -330.12109375 142.76953125 C-331.63773954 143.76276082 -333.18919946 144.70270877 -334.75 145.625 C-337.02863173 146.89664643 -337.02863173 146.89664643 -338.6875 148.6875 C-339.120625 149.120625 -339.55375 149.55375 -340 150 C-340.66 150 -341.32 150 -342 150 C-342.33 150.99 -342.66 151.98 -343 153 C-344.6015625 154.578125 -344.6015625 154.578125 -346.625 156.25 C-351.89583943 160.73822821 -356.86279076 165.17050599 -360.75 170.9375 C-361.86375 172.4534375 -361.86375 172.4534375 -363 174 C-363.99 174 -364.98 174 -366 174 C-366.25394531 174.58394531 -366.50789062 175.16789063 -366.76953125 175.76953125 C-368.13226553 178.23975751 -369.63281983 179.76199422 -371.6875 181.6875 C-375.41340984 185.29124886 -378.51165632 189.12302452 -381.5546875 193.3125 C-382.03164063 193.869375 -382.50859375 194.42625 -383 195 C-383.66 195 -384.32 195 -385 195 C-385.3403125 196.0828125 -385.3403125 196.0828125 -385.6875 197.1875 C-387.27934968 200.59860646 -389.24925528 202.43680605 -392 205 C-396.32291512 208.91774861 -396.32291512 208.91774861 -399 214 C-399.66 214 -400.32 214 -401 214 C-401 214.66 -401 215.32 -401 216 C-402 217 -403 218 -404 219 C-404.33 219.99 -404.66 220.98 -405 222 C-405.99 222.33 -406.98 222.66 -408 223 C-409.01187895 224.65948148 -410.0126546 226.32580562 -411 228 C-411.66 228 -412.32 228 -413 228 C-413.20625 228.680625 -413.4125 229.36125 -413.625 230.0625 C-415.42895027 233.91639375 -417.9010345 237.07787764 -421 240 C-421.66 240 -422.32 240 -423 240 C-423.226875 240.70125 -423.45375 241.4025 -423.6875 242.125 C-425.6670603 246.4611797 -428.22389173 249.99123948 -432.4140625 252.37109375 C-435.35738338 254.22511914 -436.97046618 256.17168988 -439.0625 258.9375 C-441.53482665 262.18334667 -443.95366324 265.27033026 -447 268 C-447.66 268 -448.32 268 -449 268 C-449 268.66 -449 269.32 -449 270 C-449.66 270 -450.32 270 -451 270 C-451 270.66 -451 271.32 -451 272 C-455.30232558 276.76744186 -455.30232558 276.76744186 -459 278 C-459 278.66 -459 279.32 -459 280 C-463.03910791 284.3466542 -467.11497889 287.67587025 -473 289 C-473 289.99 -473 290.98 -473 292 C-474.76755526 292.84026396 -476.53917263 293.67198722 -478.3125 294.5 C-479.79169922 295.19609375 -479.79169922 295.19609375 -481.30078125 295.90625 C-484 297 -484 297 -487 297 C-487 297.66 -487 298.32 -487 299 C-488.55163071 299.64951983 -490.10354959 300.298354 -491.65625 300.9453125 C-493.35339663 301.70902848 -495.01747992 302.54764361 -496.65625 303.4296875 C-503.32766512 306.88575564 -509.41388154 308.74932412 -516.8125 309.875 C-517.58102295 309.99488281 -518.3495459 310.11476563 -519.14135742 310.23828125 C-527.20450303 311.31104962 -534.68538623 311 -543 311 C-543 283.28 -543 255.56 -543 227 C-541.35 227 -539.7 227 -538 227 C-538 226.34 -538 225.68 -538 225 C-536.5437455 224.32880451 -535.08492133 223.66318193 -533.625 223 C-532.81289063 222.62875 -532.00078125 222.2575 -531.1640625 221.875 C-529 221 -529 221 -527 221 C-527 220.34 -527 219.68 -527 219 C-524.89739659 217.85121668 -522.79303461 216.70588808 -520.6875 215.5625 C-520.09259766 215.23701172 -519.49769531 214.91152344 -518.88476562 214.57617188 C-516.27626374 213.16262616 -513.82154101 211.94051367 -511 211 C-511 210.34 -511 209.68 -511 209 C-508.8828125 207.4921875 -508.8828125 207.4921875 -506.125 205.875 C-505.22007812 205.33617187 -504.31515625 204.79734375 -503.3828125 204.2421875 C-501 203 -501 203 -499 203 C-499 202.34 -499 201.68 -499 201 C-496.03 200.01 -496.03 200.01 -493 199 C-493 198.34 -493 197.68 -493 197 C-492.34 197 -491.68 197 -491 197 C-491 196.34 -491 195.68 -491 195 C-489.3203125 193.7109375 -489.3203125 193.7109375 -487.125 192.375 C-486.40570313 191.92898437 -485.68640625 191.48296875 -484.9453125 191.0234375 C-483 190 -483 190 -481 190 C-481 189.34 -481 188.68 -481 188 C-479.3203125 186.4921875 -479.3203125 186.4921875 -477.125 184.875 C-476.40570313 184.33617187 -475.68640625 183.79734375 -474.9453125 183.2421875 C-473 182 -473 182 -471 182 C-471 181.34 -471 180.68 -471 180 C-469.68 179.67 -468.36 179.34 -467 179 C-467 178.34 -467 177.68 -467 177 C-465.68 176.67 -464.36 176.34 -463 176 C-463 175.34 -463 174.68 -463 174 C-461.68 173.67 -460.36 173.34 -459 173 C-459 172.34 -459 171.68 -459 171 C-458.34 171 -457.68 171 -457 171 C-457 170.34 -457 169.68 -457 169 C-455.3203125 167.4921875 -455.3203125 167.4921875 -453.125 165.875 C-452.40570313 165.33617187 -451.68640625 164.79734375 -450.9453125 164.2421875 C-449 163 -449 163 -447 163 C-447 162.34 -447 161.68 -447 161 C-445.68 160.67 -444.36 160.34 -443 160 C-443 159.34 -443 158.68 -443 158 C-442.34 158 -441.68 158 -441 158 C-441 157.34 -441 156.68 -441 156 C-435.58823529 152 -435.58823529 152 -433 152 C-433 151.34 -433 150.68 -433 150 C-431.07412421 148.36860063 -429.15673283 146.86276775 -427.125 145.375 C-426.56941406 144.95476562 -426.01382813 144.53453125 -425.44140625 144.1015625 C-421.26235288 141 -421.26235288 141 -419 141 C-419 140.34 -419 139.68 -419 139 C-416.8828125 137.0546875 -416.8828125 137.0546875 -414.125 134.875 C-413.22007812 134.15054688 -412.31515625 133.42609375 -411.3828125 132.6796875 C-409 131 -409 131 -407 131 C-407 130.34 -407 129.68 -407 129 C-405.28480923 127.5760131 -403.5012088 126.2336784 -401.6875 124.9375 C-400.70136719 124.22464844 -399.71523438 123.51179688 -398.69921875 122.77734375 C-396 121 -396 121 -393 120 C-393 119.34 -393 118.68 -393 118 C-391.3203125 116.7109375 -391.3203125 116.7109375 -389.125 115.375 C-388.40570313 114.92898437 -387.68640625 114.48296875 -386.9453125 114.0234375 C-385 113 -385 113 -383 113 C-383 112.34 -383 111.68 -383 111 C-380.8828125 109.2734375 -380.8828125 109.2734375 -378.125 107.375 C-377.22007812 106.74335937 -376.31515625 106.11171875 -375.3828125 105.4609375 C-373 104 -373 104 -371 104 C-371 103.34 -371 102.68 -371 102 C-369.20703125 100.59765625 -369.20703125 100.59765625 -366.8125 99.0625 C-365.9875 98.52882813 -365.1625 97.99515625 -364.3125 97.4453125 C-362.6631503 96.41446894 -360.99395934 95.41509264 -359.3125 94.4375 C-356.81613422 92.96974117 -356.81613422 92.96974117 -354.1875 90.5625 C-350.6470487 87.52782745 -345.80519557 84 -341 84 C-340.67 83.01 -340.34 82.02 -340 81 C-337.525 80.505 -337.525 80.505 -335 80 C-335 79.34 -335 78.68 -335 78 C-324.6 72 -324.6 72 -321 72 C-321 71.34 -321 70.68 -321 70 C-314.46649724 67.23185804 -307.8100827 64.80936333 -301.125 62.4375 C-300.31192383 62.14480225 -299.49884766 61.85210449 -298.66113281 61.55053711 C-287.61197223 57.66582728 -276.32640994 55.40797374 -264.8125 53.375 C-262.40170785 52.94889471 -259.99151089 52.51940302 -257.58203125 52.0859375 C-256.53249268 51.9007959 -255.4829541 51.7156543 -254.40161133 51.52490234 C-252.05944738 51.23938628 -252.05944738 51.23938628 -251 50 C-248.390285 49.575586 -245.79405639 49.20885837 -243.171875 48.87890625 C-242.36397018 48.77471878 -241.55606537 48.67053131 -240.72367859 48.56318665 C-238.06650278 48.22365449 -235.40839865 47.89231348 -232.75 47.5625 C-231.84452423 47.44884094 -230.93904846 47.33518188 -230.00613403 47.21807861 C-217.31774479 45.6340118 -204.68410996 44.41808846 -191.91674805 43.66821289 C-183.62992836 43.16664378 -175.46876554 42.26360743 -167.25024414 41.1027832 C-160.80033003 40.19939726 -154.36656749 39.57628703 -147.875 39.0625 C-139.82545191 38.3989581 -132.01902151 37.21057425 -124.10717773 35.59960938 C-117.24400652 34.20435982 -110.36183503 33.10758316 -103.4375 32.0625 C-93.20023804 30.48476465 -83.2675391 28.28458404 -73.26953125 25.59814453 C-71.05047648 25.01330329 -68.82589478 24.46608251 -66.59375 23.93359375 C-59.67833181 22.2815061 -52.98396034 20.41824463 -46.3359375 17.8828125 C-41.82212348 16.17692292 -37.88069774 15 -33 15 C-33 14.34 -33 13.68 -33 13 C-30.1679225 12.03781983 -27.33443873 11.0801792 -24.5 10.125 C-23.31277344 9.72087891 -23.31277344 9.72087891 -22.1015625 9.30859375 C-17.10791177 7.63039965 -12.12736137 6.21128032 -7 5 C-7 4.34 -7 3.68 -7 3 C-4.69 2.67 -2.38 2.34 0 2 C0 1.34 0 0.68 0 0 Z " fill="#CCDAAC" transform="translate(543,0)"/>
<path d="M0 0 C77.22 0 154.44 0 234 0 C230.06760685 3.93239315 223.78249194 4.90780214 218.375 5.1875 C217.59125 5.125625 216.8075 5.06375 216 5 C216 5.66 216 6.32 216 7 C215.19820312 7.20753906 214.39640625 7.41507812 213.5703125 7.62890625 C206.42422315 9.56531822 199.52305469 11.81997854 192.625 14.5 C191.88910645 14.78431885 191.15321289 15.0686377 190.39501953 15.36157227 C186.07242287 17.07026815 181.92550032 18.98815656 177.79174805 21.11181641 C176 22 176 22 173.29296875 23.0546875 C170.69684768 24.12497932 168.60723331 25.51206351 166.3125 27.125 C162.22009569 30 162.22009569 30 160 30 C160 30.66 160 31.32 160 32 C154.58823529 36 154.58823529 36 152 36 C152 36.66 152 37.32 152 38 C151.34 38 150.68 38 150 38 C150 38.66 150 39.32 150 40 C148.34151823 41.01351664 146.67334039 42.01120795 145 43 C143.64567325 44.31200404 142.31266518 45.64631404 141 47 C136.33333333 51 136.33333333 51 134 51 C134 51.66 134 52.32 134 53 C132.3203125 54.7265625 132.3203125 54.7265625 130.125 56.625 C129.40570313 57.25664063 128.68640625 57.88828125 127.9453125 58.5390625 C126 60 126 60 124 60 C123.7421875 60.59296875 123.484375 61.1859375 123.21875 61.796875 C121.90230105 64.17660965 120.57419218 65.50978792 118.5 67.25 C117.8915625 67.77078125 117.283125 68.2915625 116.65625 68.828125 C115 70 115 70 113 70 C112.34 71.65 111.68 73.3 111 75 C110.34 75 109.68 75 109 75 C109 75.66 109 76.32 109 77 C108.34 77 107.68 77 107 77 C107 77.66 107 78.32 107 79 C105.35 79.66 103.7 80.32 102 81 C102 81.66 102 82.32 102 83 C97.69767442 87.76744186 97.69767442 87.76744186 94 89 C94 89.66 94 90.32 94 91 C92.01739574 92.68732277 90.0167658 94.35366057 88 96 C87.67 96.66 87.34 97.32 87 98 C86.319375 98.391875 85.63875 98.78375 84.9375 99.1875 C81.50371235 101.30622004 78.72655666 103.84335207 75.76953125 106.57421875 C74 108 74 108 72 108 C72 108.66 72 109.32 72 110 C71.34 110 70.68 110 70 110 C70 110.66 70 111.32 70 112 C68.68 112.33 67.36 112.66 66 113 C66 113.66 66 114.32 66 115 C65.34 115 64.68 115 64 115 C64 115.66 64 116.32 64 117 C58.58823529 121 58.58823529 121 56 121 C56 121.66 56 122.32 56 123 C53.86122899 124.52898096 51.73320613 125.93414888 49.5 127.3125 C48.8615918 127.71331787 48.22318359 128.11413574 47.56542969 128.52709961 C46.29343077 129.32492237 45.01969268 130.11997973 43.74414062 130.91210938 C42.2740993 131.82903324 40.81536758 132.76405286 39.359375 133.703125 C34.24353448 137 34.24353448 137 32 137 C32 137.66 32 138.32 32 139 C31.030625 139.37125 30.06125 139.7425 29.0625 140.125 C26.04145833 141.40336494 23.53762809 142.96538872 20.875 144.875 C14.98143491 148.93952765 7.27452302 153 0 153 C0 102.51 0 52.02 0 0 Z " fill="#87A884" transform="translate(0,0)"/>
<path d="M0 0 C35.97 0 71.94 0 109 0 C108.01 1.32 107.02 2.64 106 4 C105.34 4 104.68 4 104 4 C104 4.66 104 5.32 104 6 C103.01 6 102.02 6 101 6 C100.67 6.99 100.34 7.98 100 9 C99.34 9 98.68 9 98 9 C98 9.66 98 10.32 98 11 C96.68 11.33 95.36 11.66 94 12 C94 12.66 94 13.32 94 14 C92.70703125 15.15625 92.70703125 15.15625 90.8125 16.5 C87.07517255 19.20906805 83.39916067 21.9862424 79.75 24.8125 C76.37877904 27.42054697 72.99918198 30.01233538 69.56640625 32.5390625 C69.01952148 32.94278076 68.47263672 33.34649902 67.90917969 33.76245117 C66.39675264 34.87549573 64.88013614 35.98284104 63.36328125 37.08984375 C60.81357566 38.95635132 60.81357566 38.95635132 59 42 C57.23046875 43.02734375 57.23046875 43.02734375 55.1875 43.9375 C51.70773699 45.57317808 48.97508585 47.5499293 46 50 C45.34 50 44.68 50 44 50 C44 50.66 44 51.32 44 52 C43.0409375 52.1546875 43.0409375 52.1546875 42.0625 52.3125 C41.381875 52.539375 40.70125 52.76625 40 53 C39.67 53.99 39.34 54.98 39 56 C37.35202074 56.97580475 35.69768627 57.94276165 34.01025391 58.84863281 C30.4976598 60.86046106 27.38289715 63.40109417 24.1875 65.875 C8.26099924 78 8.26099924 78 3 78 C3 78.66 3 79.32 3 80 C1.515 80.495 1.515 80.495 0 81 C0 54.27 0 27.54 0 0 Z " fill="#5E7B64" transform="translate(0,0)"/>
<path d="M0 0 C0 0.33 0 0.66 0 1 C-1.21558594 1.13277344 -2.43117188 1.26554688 -3.68359375 1.40234375 C-5.26825484 1.58050091 -6.8528889 1.75889875 -8.4375 1.9375 C-9.64116211 2.06801758 -9.64116211 2.06801758 -10.86914062 2.20117188 C-14.75576664 2.30548394 -14.75576664 2.30548394 -18 4 C-20.69654854 4.07319621 -23.36691458 4.09242537 -26.0625 4.0625 C-26.82111328 4.05798828 -27.57972656 4.05347656 -28.36132812 4.04882812 C-30.24091871 4.0370068 -32.12046899 4.01907078 -34 4 C-34 3.67 -34 3.34 -34 3 C-33.35675781 2.95101562 -32.71351563 2.90203125 -32.05078125 2.8515625 C-26.79801966 2.41695455 -21.63691777 1.80818635 -16.4375 0.9375 C-10.90331575 0.04382192 -5.59573211 -0.22736609 0 0 Z " fill="#F1F7E8" transform="translate(482,140)"/>
<path d="M0 0 C0.66 0.33 1.32 0.66 2 1 C-1.72346836 5.42094803 -5.29521038 9.57833482 -10 13 C-8.63055898 10.05043472 -7.12169591 7.47531189 -5 5 C-4.34 5 -3.68 5 -3 5 C-2.690625 4.360625 -2.38125 3.72125 -2.0625 3.0625 C-1 1 -1 1 0 0 Z M-12 13 C-11.34 13.33 -10.68 13.66 -10 14 C-11.32 14.99 -12.64 15.98 -14 17 C-13.34 15.68 -12.68 14.36 -12 13 Z " fill="#DBE7C2" transform="translate(110,251)"/>
<path d="M0 0 C0 4.15560231 -2.2820452 5.84099329 -5 8.6875 C-5.47695312 9.19861328 -5.95390625 9.70972656 -6.4453125 10.23632812 C-7.62359915 11.49709484 -8.81095253 12.74937686 -10 14 C-10.66 13.67 -11.32 13.34 -12 13 C-8.04 8.71 -4.08 4.42 0 0 Z " fill="#DAE6C1" transform="translate(174,178)"/>
<path d="M0 0 C0.67578125 1.796875 0.67578125 1.796875 1 4 C-0.14453125 5.703125 -0.14453125 5.703125 -1.8125 7.25 C-2.62654297 8.03117188 -2.62654297 8.03117188 -3.45703125 8.828125 C-5 10 -5 10 -7 10 C-6.67 9.01 -6.34 8.02 -6 7 C-5.34 6.67 -4.68 6.34 -4 6 C-3.7834375 5.0409375 -3.7834375 5.0409375 -3.5625 4.0625 C-3 2 -3 2 0 0 Z " fill="#F0F6E8" transform="translate(239,222)"/>
<path d="M0 0 C0.99 0.495 0.99 0.495 2 1 C1.01 1.495 1.01 1.495 0 2 C0 1.34 0 0.68 0 0 Z M-2 2 C-1.34 2.33 -0.68 2.66 0 3 C-1.3125 4.5 -1.3125 4.5 -3 6 C-3.99 6 -4.98 6 -6 6 C-6.66 7.32 -7.32 8.64 -8 10 C-8.66 10 -9.32 10 -10 10 C-10 9.34 -10 8.68 -10 8 C-9.34 8 -8.68 8 -8 8 C-7.67 7.01 -7.34 6.02 -7 5 C-4.5625 3.25 -4.5625 3.25 -2 2 Z " fill="#F2F8E8" transform="translate(264,198)"/>
<path d="M0 0 C0.66 0 1.32 0 2 0 C0.61811547 3.21043882 -0.92421903 5.04936365 -3.625 7.25 C-4.57246094 8.03117187 -4.57246094 8.03117187 -5.5390625 8.828125 C-6.02117187 9.21484375 -6.50328125 9.6015625 -7 10 C-7.33 9.34 -7.66 8.68 -8 8 C-3.375 3.125 -3.375 3.125 0 2 C0 1.34 0 0.68 0 0 Z " fill="#DBE7C3" transform="translate(92,270)"/>
<path d="M0 0 C2.64 0 5.28 0 8 0 C8 0.99 8 1.98 8 3 C5.36 3 2.72 3 0 3 C0 2.01 0 1.02 0 0 Z " fill="#F6F9F0" transform="translate(360,157)"/>
<path d="M0 0 C3.3 0 6.6 0 10 0 C6.99382731 3.00617269 4.17618402 2.59585316 0 3 C0 2.01 0 1.02 0 0 Z " fill="#8EAB8D" transform="translate(224,0)"/>
<path d="M0 0 C0.66 0 1.32 0 2 0 C0.33248852 3.94139078 -2.22710649 6.7892812 -5 10 C-5 6.65580848 -4.52480606 5.93159679 -2.625 3.3125 C-2.18414062 2.68988281 -1.74328125 2.06726563 -1.2890625 1.42578125 C-0.86367187 0.95527344 -0.43828125 0.48476563 0 0 Z " fill="#F2F7EA" transform="translate(206,272)"/>
<path d="M0 0 C0 4.38968456 -2.12805101 5.76905739 -5 9 C-5.33 8.01 -5.66 7.02 -6 6 C-4.02 4.02 -2.04 2.04 0 0 Z " fill="#D9E5C1" transform="translate(150,205)"/>
</svg>
